{
	"asset":{
		"version":"2.0",
		"generator":"Created using the official Cinema 4D glTF Exporter 1.000x284978"
	},
	"scenes":[{
		"nodes":[0]
	}],
	"nodes":[{
		"translation":[-7.023245811462402,
		23.926910400390626,
		0.38429713249206545],
		"name":"baby",
		"rotation":[0.0,
		-1.2246468525851679e-16,
		0.0,
		-1.0],
		"scale":[1.0,
		1.0,
		1.0],
		"mesh":0
	}],
	"meshes":[{
		"name":"baby",
		"primitives":[{
			"attributes":{
				"POSITION":1,
				"NORMAL":2
			},
			"indices":0
		}]
	}],
	"accessors":[{
		"bufferView":0,
		"type":"SCALAR",
		"componentType":5123,
		"count":6618,
		"byteOffset":0,
		"min":[0],
		"max":[1104]
	},
	{
		"bufferView":1,
		"type":"VEC3",
		"componentType":5126,
		"count":1105,
		"byteOffset":0,
		"min":[-72.95094299316406,
		-60.065460205078128,
		-24.51726531982422],
		"max":[76.02740478515625,
		60.3404426574707,
		24.40935516357422]
	},
	{
		"bufferView":1,
		"type":"VEC3",
		"componentType":5126,
		"count":1105,
		"byteOffset":12,
		"min":[-0.9960947632789612,
		-0.9997648596763611,
		-0.9987996220588684],
		"max":[0.9983248114585877,
		0.9990584254264832,
		0.9987727403640747]
	}],
	"bufferViews":[{
		"target":34963,
		"buffer":0,
		"byteOffset":0,
		"byteLength":13236
	},
	{
		"target":34962,
		"buffer":0,
		"byteOffset":13236,
		"byteLength":26520,
		"byteStride":24
	}],
	"buffers":[{
		"uri":"data:application/octet-stream;base64,",
		"byteLength":39756
	}]
}