{
	"asset":{
		"version":"2.0",
		"generator":"Created using the official Cinema 4D glTF Exporter 1.000x284978"
	},
	"images":[{
		"uri":"data:image/jpeg;base64,"
	}],
	"scenes":[{
		"nodes":[0,
		2]
	}],
	"nodes":[{
		"name":"baby",
		"translation":[-33.528770446777347,
		-158.62289428710938,
		-161.68833923339845],
		"rotation":[0.0,
		-1.2246468525851679e-16,
		0.0,
		-1.0],
		"scale":[1.0,
		1.0,
		1.0],
		"children":[1]
	},
	{
		"name":"baby",
		"mesh":0,
		"skin":0
	},
	{
		"name":"mixamorig:Hips",
		"translation":[3.444058656692505,
		-0.11923925578594208,
		2.0207769870758058],
		"rotation":[0.04584800451993942,
		0.5460063219070435,
		0.8359494805335999,
		0.031040608882904054],
		"scale":[1.0,
		1.0,
		1.0],
		"children":[3,
		41,
		46]
	},
	{
		"name":"mixamorig:Spine",
		"translation":[4.440892098500626e-15,
		91.63285827636719,
		6.916923522949219],
		"rotation":[-0.14702241122722627,
		0.06149715930223465,
		-0.08855541050434113,
		-0.9832397699356079],
		"scale":[1.0,
		1.0,
		1.0],
		"children":[4]
	},
	{
		"name":"mixamorig:Spine1",
		"translation":[4.440892098500626e-15,
		107.2091293334961,
		3.552713678800501e-14],
		"rotation":[-0.005714289844036102,
		-0.12503312528133393,
		0.014251741580665112,
		-0.9920337200164795],
		"scale":[1.0,
		1.0,
		1.0],
		"children":[5]
	},
	{
		"name":"mixamorig:Spine2",
		"translation":[2.6645352591003758e-14,
		122.5247802734375,
		3.552713678800501e-14],
		"rotation":[0.14444682002067567,
		-0.06055041775107384,
		-0.05262111499905586,
		0.986255407333374],
		"scale":[1.0,
		1.0,
		1.0],
		"children":[6,
		9,
		25]
	},
	{
		"name":"mixamorig:Neck",
		"translation":[8.881784197001253e-15,
		137.84030151367188,
		-0.000013366384337132331],
		"rotation":[0.16157597303390504,
		0.021030789241194726,
		-0.004717237316071987,
		-0.9866248965263367],
		"scale":[1.0,
		1.0,
		1.0],
		"children":[7]
	},
	{
		"name":"mixamorig:Head",
		"translation":[0.0,
		136.05953979492188,
		-18.334674835205079],
		"rotation":[0.2639184296131134,
		0.08467710763216019,
		-0.00355735351331532,
		-0.960814356803894],
		"scale":[1.0,
		1.0,
		1.0],
		"children":[8]
	},
	{
		"name":"mixamorig:HeadTop_End",
		"translation":[-2.220446049250313e-15,
		18.833770751953126,
		-2.5379371643066408],
		"rotation":[0.0,
		0.0,
		0.0,
		-1.0],
		"scale":[1.0,
		1.0,
		1.0]
	},
	{
		"name":"mixamorig:LeftShoulder",
		"translation":[83.81784057617188,
		124.85608673095703,
		-2.4842288494110109],
		"rotation":[0.4669364094734192,
		0.5200574994087219,
		-0.5334939956665039,
		0.47633469104766848],
		"scale":[1.0,
		1.0,
		1.0],
		"children":[10]
	},
	{
		"name":"mixamorig:LeftArm",
		"translation":[0.0,
		173.82308959960938,
		-7.105427357601002e-14],
		"rotation":[-0.1452808529138565,
		-0.5323198437690735,
		-0.12781460583209992,
		0.8241313695907593],
		"scale":[1.0,
		1.0,
		1.0],
		"children":[11]
	},
	{
		"name":"mixamorig:LeftForeArm",
		"translation":[-1.0658141036401503e-13,
		189.06187438964845,
		0.0],
		"rotation":[0.27544912695884707,
		0.10826961696147919,
		-0.4628528654575348,
		-0.8355672955513],
		"scale":[1.0,
		1.0,
		1.0],
		"children":[12]
	},
	{
		"name":"mixamorig:LeftHand",
		"translation":[0.0,
		232.61813354492188,
		-1.4210854715202004e-13],
		"rotation":[0.1488790214061737,
		-0.13598716259002686,
		-0.01924009434878826,
		0.9792713522911072],
		"scale":[1.0,
		1.0,
		1.0],
		"children":[13,
		17,
		21]
	},
	{
		"name":"mixamorig:LeftHandThumb1",
		"translation":[-20.692007064819337,
		16.780193328857423,
		-0.6962053179740906],
		"rotation":[-0.1837594360113144,
		0.08147291094064713,
		-0.2701309025287628,
		-0.9416071176528931],
		"scale":[1.0,
		1.0,
		1.0],
		"children":[14]
	},
	{
		"name":"mixamorig:LeftHandThumb2",
		"translation":[3.0952186584472658,
		21.094104766845704,
		0.0],
		"rotation":[0.03974996134638786,
		-0.026085078716278077,
		0.17928792536258698,
		-0.9826471209526062],
		"scale":[1.0,
		1.0,
		1.0],
		"children":[15]
	},
	{
		"name":"mixamorig:LeftHandThumb3",
		"translation":[-3.510453462600708,
		22.861799240112306,
		3.552713678800501e-14],
		"rotation":[0.025018438696861268,
		0.06563486158847809,
		-0.09503122419118881,
		-0.9929930567741394],
		"scale":[1.0,
		1.0,
		1.0],
		"children":[16]
	},
	{
		"name":"mixamorig:LeftHandThumb4",
		"translation":[0.4152348041534424,
		21.517749786376954,
		0.0],
		"rotation":[5.551115123125783e-17,
		-6.798155663873916e-33,
		1.2246468525851679e-16,
		1.0],
		"scale":[1.0,
		1.0,
		1.0]
	},
	{
		"name":"mixamorig:LeftHandIndex1",
		"translation":[-16.177288055419923,
		59.4726448059082,
		0.000005477488684846321],
		"rotation":[0.005043277516961098,
		-0.0021926299668848516,
		0.12632130086421967,
		-0.9919741153717041],
		"scale":[1.0,
		1.0,
		1.0],
		"children":[18]
	},
	{
		"name":"mixamorig:LeftHandIndex2",
		"translation":[-0.017052413895726205,
		18.573984146118165,
		-7.105427357601002e-14],
		"rotation":[0.09896320104598999,
		0.00008816042100079358,
		-0.011662290431559086,
		0.9950227737426758],
		"scale":[1.0,
		1.0,
		1.0],
		"children":[19]
	},
	{
		"name":"mixamorig:LeftHandIndex3",
		"translation":[-0.017802022397518159,
		17.91485023498535,
		3.552713678800501e-14],
		"rotation":[0.09783758968114853,
		0.000029812579668941909,
		-0.013198248110711575,
		-0.9951148629188538],
		"scale":[1.0,
		1.0,
		1.0],
		"children":[20]
	},
	{
		"name":"mixamorig:LeftHandIndex4",
		"translation":[0.03485443815588951,
		14.479740142822266,
		0.0],
		"rotation":[0.0,
		0.0,
		0.0,
		-1.0],
		"scale":[1.0,
		1.0,
		1.0]
	},
	{
		"name":"mixamorig:LeftHandMiddle1",
		"translation":[16.177288055419923,
		64.19320678710938,
		0.000013030439731664956],
		"rotation":[0.0022613031323999168,
		-0.003969532437622547,
		0.07256100326776505,
		-0.9973534941673279],
		"scale":[1.0,
		1.0,
		1.0],
		"children":[22]
	},
	{
		"name":"mixamorig:LeftHandMiddle2",
		"translation":[0.002478472189977765,
		18.23277473449707,
		-7.105427357601002e-14],
		"rotation":[0.09260968118906021,
		-0.00004583319241646677,
		-0.010383512824773789,
		0.9956483244895935],
		"scale":[1.0,
		1.0,
		1.0],
		"children":[23]
	},
	{
		"name":"mixamorig:LeftHandMiddle3",
		"translation":[0.00754818320274353,
		16.77576446533203,
		3.552713678800501e-14],
		"rotation":[0.09895739704370499,
		0.000030282530133263209,
		-0.01063754316419363,
		-0.9950348138809204],
		"scale":[1.0,
		1.0,
		1.0],
		"children":[24]
	},
	{
		"name":"mixamorig:LeftHandMiddle4",
		"translation":[-0.010026655159890652,
		11.921899795532227,
		-7.105427357601002e-14],
		"rotation":[4.440892098500626e-16,
		0.0,
		0.0,
		-1.0],
		"scale":[1.0,
		1.0,
		1.0]
	},
	{
		"name":"mixamorig:RightShoulder",
		"translation":[-83.8178482055664,
		105.67343139648438,
		5.892420291900635],
		"rotation":[0.574373185634613,
		-0.3558880090713501,
		0.5974253416061401,
		0.4318820834159851],
		"scale":[1.0,
		1.0,
		1.0],
		"children":[26]
	},
	{
		"name":"mixamorig:RightArm",
		"translation":[0.0,
		173.8230743408203,
		3.552713678800501e-14],
		"rotation":[0.22460824251174928,
		0.12895925343036652,
		0.29555439949035647,
		0.9195478558540344],
		"scale":[1.0,
		1.0,
		1.0],
		"children":[27]
	},
	{
		"name":"mixamorig:RightForeArm",
		"translation":[-3.552713678800501e-14,
		188.95045471191407,
		7.105427357601002e-14],
		"rotation":[0.30915114283561709,
		0.30644407868385317,
		0.1506602168083191,
		0.8875917196273804],
		"scale":[1.0,
		1.0,
		1.0],
		"children":[28]
	},
	{
		"name":"mixamorig:RightHand",
		"translation":[-7.105427357601002e-14,
		232.5989532470703,
		-1.0658141036401503e-13],
		"rotation":[0.040689028799533847,
		0.1622510701417923,
		0.04665767773985863,
		0.9848055839538574],
		"scale":[1.0,
		1.0,
		1.0],
		"children":[29,
		33,
		37]
	},
	{
		"name":"mixamorig:RightHandThumb1",
		"translation":[23.185802459716798,
		18.65567970275879,
		-0.4123854339122772],
		"rotation":[-0.1912456750869751,
		-0.08988777548074722,
		0.2619687020778656,
		-0.9416568875312805],
		"scale":[1.0,
		1.0,
		1.0],
		"children":[30]
	},
	{
		"name":"mixamorig:RightHandThumb2",
		"translation":[-2.018251419067383,
		23.724031448364259,
		0.0],
		"rotation":[0.04889276623725891,
		0.022859934717416765,
		-0.09834446758031845,
		-0.9936877489089966],
		"scale":[1.0,
		1.0,
		1.0],
		"children":[31]
	},
	{
		"name":"mixamorig:RightHandThumb3",
		"translation":[1.9824259281158448,
		22.035634994506837,
		-3.552713678800501e-14],
		"rotation":[0.030356328934431077,
		-0.059393420815467837,
		0.1130867525935173,
		-0.9913436770439148],
		"scale":[1.0,
		1.0,
		1.0],
		"children":[32]
	},
	{
		"name":"mixamorig:RightHandThumb4",
		"translation":[0.035825539380311969,
		17.98659896850586,
		-5.3290705182007517e-14],
		"rotation":[1.3877787807814458e-17,
		0.0,
		0.0,
		-1.0],
		"scale":[1.0,
		1.0,
		1.0]
	},
	{
		"name":"mixamorig:RightHandIndex1",
		"translation":[15.48579216003418,
		61.98094940185547,
		-0.000003963585641031386],
		"rotation":[0.042587731033563617,
		0.004838561173528433,
		0.05774982273578644,
		0.9974105358123779],
		"scale":[1.0,
		1.0,
		1.0],
		"children":[34]
	},
	{
		"name":"mixamorig:RightHandIndex2",
		"translation":[0.005580927710980177,
		18.976991653442384,
		0.0],
		"rotation":[0.0656936913728714,
		-0.0000047086264203244358,
		0.007476564962416887,
		0.9978118538856506],
		"scale":[1.0,
		1.0,
		1.0],
		"children":[35]
	},
	{
		"name":"mixamorig:RightHandIndex3",
		"translation":[-0.0030474604573100807,
		18.227645874023439,
		5.3290705182007517e-14],
		"rotation":[0.1295178383588791,
		0.0000017237694009963889,
		0.015231912024319172,
		-0.9914600849151611],
		"scale":[1.0,
		1.0,
		1.0],
		"children":[36]
	},
	{
		"name":"mixamorig:RightHandIndex4",
		"translation":[-0.0025334670208394529,
		15.241434097290039,
		-7.105427357601002e-14],
		"rotation":[0.0,
		0.0,
		0.0,
		-1.0],
		"scale":[1.0,
		1.0,
		1.0]
	},
	{
		"name":"mixamorig:RightHandMiddle1",
		"translation":[-15.48579216003418,
		67.20040130615235,
		-0.000003931138508050935],
		"rotation":[0.02242574281990528,
		0.0008226578356698155,
		0.11693095415830612,
		0.992886483669281],
		"scale":[1.0,
		1.0,
		1.0],
		"children":[38]
	},
	{
		"name":"mixamorig:RightHandMiddle2",
		"translation":[-0.0025101634673774244,
		17.876365661621095,
		-8.881784197001252e-14],
		"rotation":[0.07515625655651093,
		0.000006356921858241549,
		0.008985365740954876,
		0.9971312880516052],
		"scale":[1.0,
		1.0,
		1.0],
		"children":[39]
	},
	{
		"name":"mixamorig:RightHandMiddle3",
		"translation":[-0.000058264980907551947,
		16.816843032836915,
		1.0658141036401503e-13],
		"rotation":[0.12949956953525544,
		-0.0000112219668153557,
		0.015229872427880764,
		-0.9914625287055969],
		"scale":[1.0,
		1.0,
		1.0],
		"children":[40]
	},
	{
		"name":"mixamorig:RightHandMiddle4",
		"translation":[0.0025684284046292307,
		13.77250862121582,
		0.0],
		"rotation":[0.0,
		0.0,
		0.0,
		-1.0],
		"scale":[1.0,
		1.0,
		1.0]
	},
	{
		"name":"mixamorig:LeftUpLeg",
		"translation":[155.1792755126953,
		-50.8531379699707,
		3.262310028076172],
		"rotation":[0.4299373924732208,
		-0.19292579591274262,
		0.7639631032943726,
		-0.4407877027988434],
		"scale":[1.0,
		1.0,
		1.0],
		"children":[42]
	},
	{
		"name":"mixamorig:LeftLeg",
		"translation":[-3.552713678800501e-14,
		265.7712097167969,
		2.220446049250313e-14],
		"rotation":[-0.3123639225959778,
		-0.04879067838191986,
		-0.05410522595047951,
		0.9471646547317505],
		"scale":[1.0,
		1.0,
		1.0],
		"children":[43]
	},
	{
		"name":"mixamorig:LeftFoot",
		"translation":[-3.552713678800501e-14,
		201.77366638183595,
		4.218847493575595e-14],
		"rotation":[0.4196002781391144,
		0.2585098445415497,
		0.11023527383804321,
		0.8631085753440857],
		"scale":[1.0,
		1.0,
		1.0],
		"children":[44]
	},
	{
		"name":"mixamorig:LeftToeBase",
		"translation":[-2.6645352591003758e-14,
		115.97190856933594,
		0.0],
		"rotation":[0.10341844707727432,
		0.10244657099246979,
		0.13098777830600739,
		0.980638325214386],
		"scale":[1.0,
		1.0,
		1.0],
		"children":[45]
	},
	{
		"name":"mixamorig:LeftToe_End",
		"translation":[-3.552713678800501e-14,
		44.89873504638672,
		-1.4210854715202004e-13],
		"rotation":[0.0,
		0.0,
		0.0,
		-1.0],
		"scale":[1.0,
		1.0,
		1.0]
	},
	{
		"name":"mixamorig:RightUpLeg",
		"translation":[-155.17929077148438,
		-50.8531379699707,
		2.872028350830078],
		"rotation":[0.4545532763004303,
		0.2853356599807739,
		-0.8040775656700134,
		-0.2557813823223114],
		"scale":[1.0,
		1.0,
		1.0],
		"children":[47]
	},
	{
		"name":"mixamorig:RightLeg",
		"translation":[-7.105427357601002e-14,
		265.81744384765627,
		-7.105427357601002e-14],
		"rotation":[0.2993234395980835,
		-0.006169399246573448,
		-0.09463915228843689,
		-0.9494265913963318],
		"scale":[1.0,
		1.0,
		1.0],
		"children":[48]
	},
	{
		"name":"mixamorig:RightFoot",
		"translation":[7.105427357601002e-14,
		201.8103790283203,
		1.7763568394002505e-13],
		"rotation":[0.49518883228302,
		-0.041623279452323917,
		-0.04864117503166199,
		0.8664234280586243],
		"scale":[1.0,
		1.0,
		1.0],
		"children":[49]
	},
	{
		"name":"mixamorig:RightToeBase",
		"translation":[0.0,
		115.4837646484375,
		0.0],
		"rotation":[0.291756808757782,
		0.28036561608314516,
		0.054895997047424319,
		0.9128304719924927],
		"scale":[1.0,
		1.0,
		1.0],
		"children":[50]
	},
	{
		"name":"mixamorig:RightToe_End",
		"translation":[7.105427357601002e-14,
		44.82175827026367,
		1.5987211554602255e-13],
		"rotation":[0.0,
		0.0,
		0.0,
		-1.0],
		"scale":[1.0,
		1.0,
		1.0]
	}],
	"materials":[{
		"pbrMetallicRoughness":{
			"baseColorTexture":{
				"index":0
			},
			"baseColorFactor":[0.8,
			0.8,
			0.8,
			1.0],
			"metallicFactor":1.0,
			"roughnessFactor":1.0
		},
		"emissiveFactor":[0.0,
		0.0,
		0.0],
		"alphaMode":"OPAQUE",
		"doubleSided":true,
		"name":"Mat"
	}],
	"meshes":[{
		"name":"baby",
		"primitives":[{
			"material":0,
			"attributes":{
				"POSITION":1,
				"NORMAL":2,
				"JOINTS_0":3,
				"WEIGHTS_0":4
			},
			"indices":0
		}]
	}],
	"skins":[{
		"inverseBindMatrices":5,
		"joints":[14,
		15,
		42,
		43,
		44,
		17,
		18,
		19,
		47,
		48,
		49,
		2,
		46,
		25,
		26,
		5,
		22,
		12,
		21,
		4,
		6,
		23,
		3,
		7,
		13,
		11,
		41,
		10,
		27,
		37,
		28,
		33,
		29,
		9,
		38,
		39,
		30,
		31,
		34,
		35]
	}],
	"accessors":[{
		"bufferView":0,
		"type":"SCALAR",
		"componentType":5123,
		"count":6546,
		"byteOffset":0,
		"min":[0],
		"max":[1092]
	},
	{
		"bufferView":1,
		"type":"VEC3",
		"componentType":5126,
		"count":1093,
		"byteOffset":0,
		"min":[-417.9491882324219,
		-74.32260131835938,
		-421.1266174316406],
		"max":[461.78936767578127,
		370.04656982421877,
		993.14111328125]
	},
	{
		"bufferView":1,
		"type":"VEC3",
		"componentType":5126,
		"count":1093,
		"byteOffset":12,
		"min":[-0.9981223940849304,
		-0.9997327327728272,
		-0.9929842352867127],
		"max":[0.9976168870925903,
		0.9996892809867859,
		0.9956574440002441]
	},
	{
		"bufferView":2,
		"type":"VEC4",
		"componentType":5123,
		"count":1093,
		"byteOffset":0,
		"min":[0,
		0,
		2,
		0],
		"max":[39,
		38,
		39,
		38]
	},
	{
		"bufferView":3,
		"type":"VEC4",
		"componentType":5126,
		"count":1093,
		"byteOffset":0,
		"min":[0.26002898812294009,
		0.004043641034513712,
		0.0,
		0.0],
		"max":[0.9959105849266052,
		0.4945143759250641,
		0.29199665784835818,
		0.16096742451190949]
	},
	{
		"bufferView":4,
		"type":"MAT4",
		"componentType":5126,
		"count":40,
		"byteOffset":0,
		"min":[-0.9957221150398254,
		-0.9938531517982483,
		-0.9709631204605103,
		0.0,
		-0.9890795350074768,
		-0.6389137506484985,
		-0.13344360888004304,
		0.0,
		-0.8964956998825073,
		-0.9913054704666138,
		-0.9876284003257752,
		0.0,
		-495.99261474609377,
		-1052.906982421875,
		-543.5519409179688,
		1.0],
		"max":[0.9647894501686096,
		0.8912065625190735,
		0.9188622236251831,
		0.0,
		0.9986794590950012,
		0.5074511170387268,
		0.9885898232460022,
		0.0,
		0.3609625995159149,
		0.984001874923706,
		0.8235102891921997,
		0.0,
		586.810546875,
		406.9579772949219,
		612.036376953125,
		1.0]
	}],
	"bufferViews":[{
		"buffer":0,
		"byteOffset":0,
		"byteLength":13092,
		"target":34963
	},
	{
		"buffer":0,
		"byteOffset":13092,
		"byteLength":26232,
		"target":34962,
		"byteStride":24
	},
	{
		"buffer":0,
		"byteOffset":39324,
		"byteLength":8744,
		"target":34962
	},
	{
		"buffer":0,
		"byteOffset":48068,
		"byteLength":17488,
		"target":34962
	},
	{
		"buffer":1,
		"byteOffset":0,
		"byteLength":2560
	}],
	"buffers":[{
		"uri":"data:application/octet-stream;base64,",
		"byteLength":65556
	},
	{
		"uri":"data:application/octet-stream;base64,",
		"byteLength":2560
	}],
	"samplers":[{
		"magFilter":9729,
		"minFilter":9729,
		"wrapS":10497,
		"wrapT":10497
	}],
	"textures":[{
		"sampler":0,
		"source":0
	}]
}